<?xml version="1.0"?>
<svg width="1000" height="1000" xmlns="http://www.w3.org/2000/svg" xmlns:svg="http://www.w3.org/2000/svg">
 <g>
  <title>Layer 1</title>
  <path id="svg_1" d="m12.67,18.969999c303.099989,-0.039999 606.199995,0 909.290022,-0.01c18.440002,0.050001 36.869995,-0.109999 55.309998,0.080002c-25.01001,25.719997 -50.470032,51 -75.720032,76.489998c-105.22998,106.430008 -211.309998,212.029999 -316.859985,318.149994c-26.309998,26.330017 -52.530029,52.76001 -78.839996,79.089996c-3.920013,4.080017 -8.140015,7.880005 -11.880005,12.140015c0.25,0.5 0.730011,1.519989 0.970001,2.019989c-0.48999,0.27002 -1.470001,0.790009 -1.970001,1.050018c-160.149994,160.279999 -320.139999,320.73996 -480.190001,481.100006c-0.309999,-48.350037 -0.04,-96.720032 -0.13,-145.080017c0.01,-275.01001 -0.03,-550.019989 0.02,-825.030001z" fill="#ff7773"/>
  <path id="svg_2" d="m977.27002,19.040001c0.709961,0 2.139954,-0.01 2.849976,-0.01c0.02002,170.320005 0.01001,340.649992 0.01001,510.969999c-0.160034,133.659973 0.419983,267.330017 0.690002,400.98999c-0.100037,20.25 0.460022,40.52002 0.01001,60.77002c-134.119995,-134.090027 -268.600037,-267.799988 -402.830017,-401.75c-27.640015,-27.72998 -55.539978,-55.23999 -83.059998,-83.080017c-0.23999,-0.5 -0.720001,-1.519989 -0.970001,-2.019989c3.73999,-4.26001 7.959991,-8.059998 11.880005,-12.140015c26.309967,-26.329987 52.529999,-52.759979 78.839996,-79.089996c105.549988,-106.119995 211.630005,-211.719986 316.859985,-318.149994c25.25,-25.489998 50.710022,-50.77 75.720032,-76.489998z" fill="#de4d48"/>
  <path stroke-dasharray="2,2" stroke="#962424" id="svg_4" d="m974,20c0,0 -474,487.611908 -474,487.611908c0,0 49.789917,52.388092 49.789917,52.388092c0,0 424.210083,-540 424.210083,-540z" stroke-width="6" fill="#b53434"/>
 </g>
 <defs>
  <linearGradient spreadMethod="pad" id="svg_5">
   <stop offset="0.322937" stop-color="#ff7f00"/>
   <stop offset="0.901062" stop-color="#0080ff"/>
  </linearGradient>
  <linearGradient id="svg_6">
   <stop offset="0" stop-opacity="0.996094" stop-color="#c93030"/>
   <stop offset="0.994812" stop-opacity="0.996094" stop-color="#962424"/>
  </linearGradient>
  <linearGradient y2="0" x2="1" y1="0" x1="0" spreadMethod="pad" id="svg_7">
   <stop offset="0.322937" stop-opacity="0.996094" stop-color="#bf0000"/>
   <stop offset="0.89325" stop-opacity="0.996094" stop-color="#7f0000"/>
   <stop offset="0.901062" stop-color="#0080ff"/>
  </linearGradient>
  <radialGradient spreadMethod="pad" id="svg_8">
   <stop offset="0" stop-opacity="0.996094" stop-color="#c93030"/>
   <stop offset="0.994812" stop-opacity="0.996094" stop-color="#962424"/>
  </radialGradient>
  <radialGradient r="0.5" cy="0.5" cx="0.5" spreadMethod="pad" id="svg_9">
   <stop offset="0" stop-opacity="0.996094" stop-color="#c93030"/>
   <stop offset="0" stop-opacity="0.996094" stop-color="#962424"/>
  </radialGradient>
 </defs>
</svg>